<?xml version="1.0" encoding="UTF-8" standalone="no"?>
<svg
   xmlns:dc="http://purl.org/dc/elements/1.1/"
   xmlns:cc="http://creativecommons.org/ns#"
   xmlns:rdf="http://www.w3.org/1999/02/22-rdf-syntax-ns#"
   xmlns:svg="http://www.w3.org/2000/svg"
   xmlns="http://www.w3.org/2000/svg"
   xmlns:sodipodi="http://sodipodi.sourceforge.net/DTD/sodipodi-0.dtd"
   xmlns:inkscape="http://www.inkscape.org/namespaces/inkscape"
   version="1.1"
   id="Capa_1"
   x="0px"
   y="0px"
   viewBox="0 0 470 470"
   style="enable-background:new 0 0 470 470;"
   xml:space="preserve"
   width="512"
   height="512"
   sodipodi:docname="logo.svg"
   inkscape:version="0.92.4 5da689c313, 2019-01-14"
   inkscape:export-filename="/home/u-foka/Documents/Workspace/Development/reactor/graphics/logo.svg.png"
   inkscape:export-xdpi="96"
   inkscape:export-ydpi="96"><metadata
   id="metadata3811"><rdf:RDF><cc:Work
       rdf:about=""><dc:format>image/svg+xml</dc:format><dc:type
         rdf:resource="http://purl.org/dc/dcmitype/StillImage" /><dc:title /></cc:Work></rdf:RDF></metadata><defs
   id="defs3809" /><sodipodi:namedview
   pagecolor="#ffffff"
   bordercolor="#666666"
   borderopacity="1"
   objecttolerance="10"
   gridtolerance="10"
   guidetolerance="10"
   inkscape:pageopacity="0"
   inkscape:pageshadow="2"
   inkscape:window-width="1318"
   inkscape:window-height="712"
   id="namedview3807"
   showgrid="false"
   inkscape:zoom="1.0390625"
   inkscape:cx="220.87218"
   inkscape:cy="268.69045"
   inkscape:window-x="48"
   inkscape:window-y="28"
   inkscape:window-maximized="1"
   inkscape:current-layer="g3804" />
<g
   id="g3804">
	<path
   style="fill:#5c5c5c;stroke-width:1.08936167;fill-opacity:1"
   d="M 256 152.50977 C 188.82451 152.50977 125.54698 162.618 77.824219 180.97266 C 27.638414 200.27615 0 226.92167 0 256 C 9.4739031e-15 285.07833 27.638414 311.72494 77.824219 331.02734 C 125.54589 349.382 188.82342 359.49023 256 359.49023 C 323.17658 359.49023 386.45411 349.382 434.17578 331.02734 C 484.36159 311.72494 512 285.07833 512 256 C 512 226.92167 484.36159 200.27615 434.17578 180.97266 C 386.45302 162.618 323.17549 152.50977 256 152.50977 z M 256 168.85156 C 399.35891 168.85156 495.66016 213.91251 495.66016 256 C 495.66016 298.08749 399.35891 343.14844 256 343.14844 C 112.64109 343.14844 16.339844 298.08749 16.339844 256 C 16.339844 213.91251 112.64109 168.85156 256 168.85156 z "
   transform="scale(0.91796875)"
   id="path3782" />
	<path
   style="fill:#5c5c5c;stroke-width:1.08936167;fill-opacity:1"
   d="M 360.12305 27.955078 C 337.67424 27.563256 310.164 39.88033 280.11328 64.181641 C 240.35703 96.333062 199.96524 146.07872 166.37695 204.25391 C 132.78866 262.43018 109.90291 322.28494 101.9375 372.79102 C 93.560309 425.90393 102.81614 463.16233 128 477.70312 C 135.363 481.95381 143.72571 484.05469 152.91992 484.05469 C 175.17558 484.05469 202.30074 471.74292 231.88672 447.81836 C 271.64297 415.66585 312.03476 365.92237 345.62305 307.74609 C 379.21134 249.56982 402.09709 189.71592 410.0625 139.21094 C 418.4315 86.148845 409.2004 48.913611 384.07227 34.34375 C 384.04733 34.329004 384.02515 34.311395 384 34.296875 C 376.91704 30.207888 368.90736 28.1084 360.12305 27.955078 z M 359.91406 44.359375 C 365.91819 44.466383 371.26057 45.813424 375.8125 48.4375 C 375.81865 48.441074 375.82391 48.445658 375.83008 48.449219 C 394.47124 59.212112 401.06396 91.365135 393.91992 136.66406 C 386.25953 185.23652 364.0827 243.09386 331.47266 299.57617 C 259.80514 423.70663 172.64569 484.57959 136.1875 463.5625 C 136.18135 463.55893 136.17608 463.55434 136.16992 463.55078 C 99.722058 442.50758 108.84843 336.57816 180.52734 212.42578 C 243.24544 103.79341 317.83164 43.609362 359.91406 44.359375 z "
   transform="scale(0.91796875)"
   id="path3784" />
	<path
   style="fill:#5c5c5c;stroke-width:1.08936167;fill-opacity:1"
   d="M 151.87695 27.955078 C 143.0925 28.108568 135.08327 30.207275 128 34.296875 C 102.81723 48.836586 93.561398 86.094976 101.9375 139.20898 C 109.90291 189.71397 132.78866 249.56787 166.37695 307.74414 C 199.96524 365.92041 240.35703 415.66585 280.11328 447.81836 C 309.70143 471.74619 336.82333 484.05687 359.08008 484.05469 C 368.27211 484.05469 376.63918 481.95381 384 477.70312 C 409.18277 463.16232 418.4386 425.90393 410.0625 372.79102 C 402.09709 322.28494 379.21134 262.43213 345.62305 204.25586 C 312.03585 146.08068 271.64406 96.335015 231.88672 64.183594 C 201.83678 39.8815 174.32611 27.562826 151.87695 27.955078 z M 152.08594 44.361328 C 194.16921 43.612671 268.75361 103.79341 331.47266 212.42578 C 403.15157 336.57707 412.27794 442.50758 375.83008 463.55078 C 371.0761 466.29597 365.46527 467.64757 359.13281 467.64648 C 316.91133 467.63995 242.85735 407.53323 180.52734 299.57422 C 147.91839 243.0919 125.74047 185.23652 118.08008 136.66406 C 110.93495 91.365135 117.52876 59.212112 136.16992 48.449219 C 140.7259 45.818955 146.07404 44.468279 152.08594 44.361328 z "
   transform="scale(0.91796875)"
   id="path3786" />
	<circle
   style="fill:#4e74ba;fill-opacity:1;stroke-width:1.38045001"
   cx="203.66014"
   cy="409.15857"
   r="27.609001"
   id="circle3790" />
	<circle
   style="fill:#4e74ba;stroke-width:1.38045001;fill-opacity:1"
   cx="409.561"
   cy="289.75342"
   r="27.604858"
   id="circle3792" />
	<circle
   style="fill:#4e74ba;stroke-width:1.38045001;fill-opacity:1"
   cx="100.72427"
   cy="76.816772"
   r="27.604858"
   id="circle3794" />
	<circle
   style="fill:#f59e15;stroke-width:1.13742685;fill-opacity:1"
   cx="235"
   cy="235"
   r="51.184212"
   id="circle3796" />
	<circle
   style="fill:#4e74ba;stroke-width:1.38045001;fill-opacity:1"
   cx="372.88071"
   cy="111.27166"
   r="27.604858"
   id="circle3802" />
</g>
</svg>